<svg xmlns="http://www.w3.org/2000/svg">
    <symbol id="menu-burger" viewBox="0 0 24 24">
        <rect y="11" width="24" height="2" rx="1"/><rect y="4" width="24" height="2" rx="1"/><rect y="18" width="24" height="2" rx="1"/>
    </symbol>

    <symbol id="dashboard" viewBox="0 0 24 24">
        <path d="M7 0H4a4 4 0 0 0-4 4v3a4 4 0 0 0 4 4h3a4 4 0 0 0 4-4V4a4 4 0 0 0-4-4Zm2 7a2 2 0 0 1-2 2H4a2 2 0 0 1-2-2V4a2 2 0 0 1 2-2h3a2 2 0 0 1 2 2ZM20 0h-3a4 4 0 0 0-4 4v3a4 4 0 0 0 4 4h3a4 4 0 0 0 4-4V4a4 4 0 0 0-4-4Zm2 7a2 2 0 0 1-2 2h-3a2 2 0 0 1-2-2V4a2 2 0 0 1 2-2h3a2 2 0 0 1 2 2ZM7 13H4a4 4 0 0 0-4 4v3a4 4 0 0 0 4 4h3a4 4 0 0 0 4-4v-3a4 4 0 0 0-4-4Zm2 7a2 2 0 0 1-2 2H4a2 2 0 0 1-2-2v-3a2 2 0 0 1 2-2h3a2 2 0 0 1 2 2ZM20 13h-3a4 4 0 0 0-4 4v3a4 4 0 0 0 4 4h3a4 4 0 0 0 4-4v-3a4 4 0 0 0-4-4Zm2 7a2 2 0 0 1-2 2h-3a2 2 0 0 1-2-2v-3a2 2 0 0 1 2-2h3a2 2 0 0 1 2 2Z"/>
    </symbol>
    <symbol id="marketplace" viewBox="0 0 24 24">
        <path d="M21 6h-3A6 6 0 0 0 6 6H3a3 3 0 0 0-3 3v10a5.006 5.006 0 0 0 5 5h14a5.006 5.006 0 0 0 5-5V9a3 3 0 0 0-3-3Zm-9-4a4 4 0 0 1 4 4H8a4 4 0 0 1 4-4Zm10 17a3 3 0 0 1-3 3H5a3 3 0 0 1-3-3V9a1 1 0 0 1 1-1h3v2a1 1 0 0 0 2 0V8h8v2a1 1 0 0 0 2 0V8h3a1 1 0 0 1 1 1Z"/>
    </symbol>
    <symbol id="collections" viewBox="0 0 24 24">
        <path d="M19 3h-6.528a1.019 1.019 0 0 1-.447-.1L8.869 1.316A3.014 3.014 0 0 0 7.528 1H5a5.006 5.006 0 0 0-5 5v12a5.006 5.006 0 0 0 5 5h14a5.006 5.006 0 0 0 5-5V8a5.006 5.006 0 0 0-5-5ZM5 3h2.528a1.019 1.019 0 0 1 .447.1l3.156 1.579A3.014 3.014 0 0 0 12.472 5H19a3 3 0 0 1 2.779 1.882L2 6.994V6a3 3 0 0 1 3-3Zm14 18H5a3 3 0 0 1-3-3V8.994l20-.113V18a3 3 0 0 1-3 3Z"/>
    </symbol>
    <symbol id="wallet" viewBox="0 0 24 24">
        <circle cx="5.5" cy="15.5" r="1.5"/><path d="M19 3H5a5.006 5.006 0 0 0-5 5v8a5.006 5.006 0 0 0 5 5h14a5.006 5.006 0 0 0 5-5V8a5.006 5.006 0 0 0-5-5ZM5 5h14a3 3 0 0 1 3 3H2a3 3 0 0 1 3-3Zm14 14H5a3 3 0 0 1-3-3v-6h20v6a3 3 0 0 1-3 3Z"/>
    </symbol>
    <symbol id="statistics" viewBox="0 0 24 24">
        <path d="M23 22H3a1 1 0 0 1-1-1V1a1 1 0 0 0-2 0v20a3 3 0 0 0 3 3h20a1 1 0 0 0 0-2Z"/><path d="M15 20a1 1 0 0 0 1-1v-7a1 1 0 0 0-2 0v7a1 1 0 0 0 1 1ZM7 20a1 1 0 0 0 1-1v-7a1 1 0 0 0-2 0v7a1 1 0 0 0 1 1ZM19 20a1 1 0 0 0 1-1V7a1 1 0 0 0-2 0v12a1 1 0 0 0 1 1ZM11 20a1 1 0 0 0 1-1V7a1 1 0 0 0-2 0v12a1 1 0 0 0 1 1Z"/>
    </symbol>

    <symbol id="settings" viewBox="0 0 24 24">
        <path d="M12 8a4 4 0 1 0 4 4 4 4 0 0 0-4-4Zm0 6a2 2 0 1 1 2-2 2 2 0 0 1-2 2Z"/><path d="m21.294 13.9-.444-.256a9.1 9.1 0 0 0 0-3.29l.444-.256a3 3 0 1 0-3-5.2l-.445.257A8.977 8.977 0 0 0 15 3.513V3a3 3 0 0 0-6 0v.513a8.977 8.977 0 0 0-2.848 1.646L5.705 4.9a3 3 0 0 0-3 5.2l.444.256a9.1 9.1 0 0 0 0 3.29l-.444.256a3 3 0 1 0 3 5.2l.445-.257A8.977 8.977 0 0 0 9 20.487V21a3 3 0 0 0 6 0v-.513a8.977 8.977 0 0 0 2.848-1.646l.447.258a3 3 0 0 0 3-5.2Zm-2.548-3.776a7.048 7.048 0 0 1 0 3.75 1 1 0 0 0 .464 1.133l1.084.626a1 1 0 0 1-1 1.733l-1.086-.628a1 1 0 0 0-1.215.165 6.984 6.984 0 0 1-3.243 1.875 1 1 0 0 0-.751.969V21a1 1 0 0 1-2 0v-1.252a1 1 0 0 0-.751-.969A6.984 6.984 0 0 1 7.006 16.9a1 1 0 0 0-1.215-.165l-1.084.627a1 1 0 1 1-1-1.732l1.084-.626a1 1 0 0 0 .464-1.133 7.048 7.048 0 0 1 0-3.75 1 1 0 0 0-.465-1.129l-1.084-.626a1 1 0 0 1 1-1.733l1.086.628A1 1 0 0 0 7.006 7.1a6.984 6.984 0 0 1 3.243-1.875A1 1 0 0 0 11 4.252V3a1 1 0 0 1 2 0v1.252a1 1 0 0 0 .751.969A6.984 6.984 0 0 1 16.994 7.1a1 1 0 0 0 1.215.165l1.084-.627a1 1 0 1 1 1 1.732l-1.084.626a1 1 0 0 0-.463 1.129Z"/>
    </symbol>
    <symbol id="logout" viewBox="0 0 24 24">
        <path d="M22.829 9.172 18.95 5.293a1 1 0 0 0-1.414 1.414l3.879 3.879a2.057 2.057 0 0 1 .3.39c-.015 0-.027-.008-.042-.008L5.989 11a1 1 0 0 0 0 2l15.678-.032c.028 0 .051-.014.078-.016a2 2 0 0 1-.334.462l-3.879 3.879a1 1 0 1 0 1.414 1.414l3.879-3.879a4 4 0 0 0 0-5.656Z"/><path d="M7 22H5a3 3 0 0 1-3-3V5a3 3 0 0 1 3-3h2a1 1 0 0 0 0-2H5a5.006 5.006 0 0 0-5 5v14a5.006 5.006 0 0 0 5 5h2a1 1 0 0 0 0-2Z"/>
    </symbol>

    <symbol id="search" viewBox="0 0 24 24">
        <path d="m23.707 22.293-5.969-5.969a10.016 10.016 0 1 0-1.414 1.414l5.969 5.969a1 1 0 0 0 1.414-1.414ZM10 18a8 8 0 1 1 8-8 8.009 8.009 0 0 1-8 8Z"/>
    </symbol>
    <symbol id="email" viewBox="0 0 24 24">
        <path d="M19 1H5a5.006 5.006 0 0 0-5 5v12a5.006 5.006 0 0 0 5 5h14a5.006 5.006 0 0 0 5-5V6a5.006 5.006 0 0 0-5-5ZM5 3h14a3 3 0 0 1 2.78 1.887l-7.658 7.659a3.007 3.007 0 0 1-4.244 0L2.22 4.887A3 3 0 0 1 5 3Zm14 18H5a3 3 0 0 1-3-3V7.5l6.464 6.46a5.007 5.007 0 0 0 7.072 0L22 7.5V18a3 3 0 0 1-3 3Z"/>
    </symbol>
    <symbol id="notifications" viewBox="0 0 24 24">
        <path d="m22.555 13.662-1.9-6.836A9.321 9.321 0 0 0 2.576 7.3l-1.471 6.615A5 5 0 0 0 5.986 20H7.1a5 5 0 0 0 9.8 0h.838a5 5 0 0 0 4.818-6.338ZM12 22a3 3 0 0 1-2.816-2h5.632A3 3 0 0 1 12 22Zm8.126-5.185A2.977 2.977 0 0 1 17.737 18H5.986a3 3 0 0 1-2.928-3.651l1.47-6.616a7.321 7.321 0 0 1 14.2-.372l1.9 6.836a2.977 2.977 0 0 1-.502 2.618Z"/>
    </symbol>

    <symbol id="assets" viewBox="0 0 24 24">
        <path d="M20.137 24a2.8 2.8 0 0 1-1.987-.835L12 17.051l-6.15 6.118a2.8 2.8 0 0 1-3.095.609A2.8 2.8 0 0 1 1 21.154V5a5 5 0 0 1 5-5h12a5 5 0 0 1 5 5v16.154a2.8 2.8 0 0 1-1.751 2.624 2.867 2.867 0 0 1-1.112.222ZM6 2a3 3 0 0 0-3 3v16.154a.843.843 0 0 0 1.437.6l6.863-6.821a1 1 0 0 1 1.41 0l6.855 6.819a.843.843 0 0 0 1.437-.6V5a3 3 0 0 0-3-3Z"/>    
    </symbol>
    <symbol id="items" viewBox="0 0 24 24">
        <path d="M19 0H5a5.006 5.006 0 0 0-5 5v14a5.006 5.006 0 0 0 5 5h14a5.006 5.006 0 0 0 5-5V5a5.006 5.006 0 0 0-5-5ZM5 2h14a3 3 0 0 1 3 3v14a2.951 2.951 0 0 1-.3 1.285l-9.163-9.163a5 5 0 0 0-7.072 0L2 14.586V5a3 3 0 0 1 3-3Zm0 20a3 3 0 0 1-3-3v-1.586l4.878-4.878a3 3 0 0 1 4.244 0l9.163 9.164A2.951 2.951 0 0 1 19 22Z"/><path d="M16 10.5A3.5 3.5 0 1 0 12.5 7a3.5 3.5 0 0 0 3.5 3.5Zm0-5A1.5 1.5 0 1 1 14.5 7 1.5 1.5 0 0 1 16 5.5Z"/>
    </symbol>
    <symbol id="sales" viewBox="0 0 24 24">
        <path d="M23.836 8.794a3.179 3.179 0 0 0-3.067-2.226H16.4l-1.327-4.136a3.227 3.227 0 0 0-6.146 0L7.6 6.568H3.231a3.227 3.227 0 0 0-1.9 5.832L4.887 15l-1.352 4.187A3.178 3.178 0 0 0 4.719 22.8a3.177 3.177 0 0 0 3.8-.019L12 20.219l3.482 2.559a3.227 3.227 0 0 0 4.983-3.591L19.113 15l3.56-2.6a3.177 3.177 0 0 0 1.163-3.606Zm-2.343 1.991-4.144 3.029a1 1 0 0 0-.362 1.116l1.575 4.87a1.227 1.227 0 0 1-1.895 1.365l-4.075-3a1 1 0 0 0-1.184 0l-4.075 3a1.227 1.227 0 0 1-1.9-1.365l1.58-4.87a1 1 0 0 0-.362-1.116l-4.144-3.029a1.227 1.227 0 0 1 .724-2.217h5.1a1 1 0 0 0 .952-.694l1.55-4.831a1.227 1.227 0 0 1 2.336 0l1.55 4.831a1 1 0 0 0 .952.694h5.1a1.227 1.227 0 0 1 .724 2.217Z"/>
    </symbol>
    <symbol id="activities" viewBox="0 0 24 24">
        <path d="M23.836 8.794a3.179 3.179 0 0 0-3.067-2.226H16.4l-1.327-4.136a3.227 3.227 0 0 0-6.146 0L7.6 6.568H3.231a3.227 3.227 0 0 0-1.9 5.832L4.887 15l-1.352 4.187A3.178 3.178 0 0 0 4.719 22.8a3.177 3.177 0 0 0 3.8-.019L12 20.219l3.482 2.559a3.227 3.227 0 0 0 4.983-3.591L19.113 15l3.56-2.6a3.177 3.177 0 0 0 1.163-3.606Zm-2.343 1.991-4.144 3.029a1 1 0 0 0-.362 1.116l1.575 4.87a1.227 1.227 0 0 1-1.895 1.365l-4.075-3a1 1 0 0 0-1.184 0l-4.075 3a1.227 1.227 0 0 1-1.9-1.365l1.58-4.87a1 1 0 0 0-.362-1.116l-4.144-3.029a1.227 1.227 0 0 1 .724-2.217h5.1a1 1 0 0 0 .952-.694l1.55-4.831a1.227 1.227 0 0 1 2.336 0l1.55 4.831a1 1 0 0 0 .952.694h5.1a1.227 1.227 0 0 1 .724 2.217Z"/>
    </symbol>

    <symbol id="favourite" viewBox="0 0 24 24">
        <path d="M23.836 8.794a3.179 3.179 0 0 0-3.067-2.226H16.4l-1.327-4.136a3.227 3.227 0 0 0-6.146 0L7.6 6.568H3.231a3.227 3.227 0 0 0-1.9 5.832L4.887 15l-1.352 4.187A3.178 3.178 0 0 0 4.719 22.8a3.177 3.177 0 0 0 3.8-.019L12 20.219l3.482 2.559a3.227 3.227 0 0 0 4.983-3.591L19.113 15l3.56-2.6a3.177 3.177 0 0 0 1.163-3.606Zm-2.343 1.991-4.144 3.029a1 1 0 0 0-.362 1.116l1.575 4.87a1.227 1.227 0 0 1-1.895 1.365l-4.075-3a1 1 0 0 0-1.184 0l-4.075 3a1.227 1.227 0 0 1-1.9-1.365l1.58-4.87a1 1 0 0 0-.362-1.116l-4.144-3.029a1.227 1.227 0 0 1 .724-2.217h5.1a1 1 0 0 0 .952-.694l1.55-4.831a1.227 1.227 0 0 1 2.336 0l1.55 4.831a1 1 0 0 0 .952.694h5.1a1.227 1.227 0 0 1 .724 2.217Z"/>
    </symbol>

    <symbol id="sale" viewBox="0 0 24 24">
        <path d="M22.713 4.077A2.993 2.993 0 0 0 20.41 3H4.242L4.2 2.649A3 3 0 0 0 1.222 0H1a1 1 0 0 0 0 2h.222a1 1 0 0 1 .993.883l1.376 11.7A5 5 0 0 0 8.557 19H19a1 1 0 0 0 0-2H8.557a3 3 0 0 1-2.82-2h11.92a5 5 0 0 0 4.921-4.113l.785-4.354a2.994 2.994 0 0 0-.65-2.456ZM21.4 6.178l-.786 4.354A3 3 0 0 1 17.657 13H5.419l-.941-8H20.41a1 1 0 0 1 .99 1.178Z"/><circle cx="7" cy="22" r="2"/><circle cx="17" cy="22" r="2"/>
    </symbol>
    <symbol id="transfer" viewBox="0 0 24 24">
        <path d="M12.067 17.445a1.5 1.5 0 0 1-.012 2.121l-3.793 3.75a2.5 2.5 0 0 1-3.529-.005L.946 19.567a1.5 1.5 0 0 1 2.11-2.133l1.945 1.923V1.5a1.5 1.5 0 1 1 3 0v17.857l1.945-1.923a1.5 1.5 0 0 1 2.122.012ZM23.055 4.477 19.268.733a2.5 2.5 0 0 0-3.529-.006l-3.793 3.75a1.5 1.5 0 0 0 2.11 2.133l1.945-1.923V22.5a1.5 1.5 0 1 0 3 0V4.686l1.945 1.923a1.497 1.497 0 0 0 2.122-.011 1.5 1.5 0 0 0-.012-2.121Z"/>
    </symbol>
    
    <symbol id="ethereum" viewBox="0 0 452.512 452.512">
        <path d="m344.236 302.272-111.61 147.08c-3.196 4.215-9.546 4.211-12.74 0l-111.61-147.08c-2.6-3.42 1.28-7.97 5.06-5.95l109.16 58.16a7.99 7.99 0 0 0 7.44.04l109.24-58.2c3.78-2.02 7.66 2.53 5.06 5.95z" fill="#6e6f80" data-original="#6e6f80"/><path d="M344.236 302.272 232.578 449.415c-2.045 2.643-6.322 1.044-6.322-2.298v-88.488a3.58 3.58 0 0 1 1.895-3.157l111.025-59.15c3.78-2.02 7.66 2.53 5.06 5.95z" fill="#585966" data-original="#585966"/><path d="m350.336 192.542-120.36 63.25a7.979 7.979 0 0 1-7.44 0l-120.36-63.25c-4.22-2.22-5.57-7.62-2.9-11.57l120.36-177.46c3.155-4.672 10.061-4.684 13.23-.01l120.37 177.47c2.67 3.95 1.32 9.35-2.9 11.57z" fill="#6e6f80" data-original="#6e6f80"/><path d="M350.336 192.542 229.941 255.81c-1.675.884-3.685-.425-3.685-2.318V3.21c0-1.868 1.965-3.19 3.63-2.346a7.91 7.91 0 0 1 2.979 2.638l120.37 177.47c2.671 3.95 1.321 9.35-2.899 11.57z" fill="#585966" data-original="#585966"/><path d="m222.534 314.834-132-69.37a8 8 0 1 1 7.444-14.163l128.278 67.414L354.534 231.3c3.91-2.057 8.748-.551 10.804 3.36a8 8 0 0 1-3.36 10.803l-132 69.37a8.001 8.001 0 0 1-7.444.001z" fill="#6e6f80" data-original="#6e6f80"/><g fill="#828396"><path d="M229.616.742c-1.6-.58-3.36.698-3.36 2.468v133.248c0 4.846-2.212 9.41-5.969 12.471-24.774 20.189-55.248 26.504-86.611 22.772-11.865-1.412-17.958-14.97-11.252-24.859l97.211-143.33C221.939.1 226.28-.832 229.616.742zM211.29 356.178c-5.304 14.906-17.427 26.487-33.444 30.177-3.019.695-6.16-.523-8.033-2.99l-61.538-81.093c-2.6-3.42 1.28-7.97 5.06-5.95l94.152 50.17c3.478 1.853 5.124 5.974 3.803 9.686z" data-original="#828396"/></g>
    </symbol>

    <symbol id="buy" viewBox="0 0 24 24">
        <path d="M22.713 4.077A2.993 2.993 0 0 0 20.41 3H4.242L4.2 2.649A3 3 0 0 0 1.222 0H1a1 1 0 0 0 0 2h.222a1 1 0 0 1 .993.883l1.376 11.7A5 5 0 0 0 8.557 19H19a1 1 0 0 0 0-2H8.557a3 3 0 0 1-2.82-2h11.92a5 5 0 0 0 4.921-4.113l.785-4.354a2.994 2.994 0 0 0-.65-2.456ZM21.4 6.178l-.786 4.354A3 3 0 0 1 17.657 13H5.419l-.941-8H20.41a1 1 0 0 1 .99 1.178Z"/><circle cx="7" cy="22" r="2"/><circle cx="17" cy="22" r="2"/>
    </symbol>
</svg>
